# xmcd
#
# Track frame offsets:
# 150
# 15044
# 33347
# 51181
# 66563
# 85267
# 101397
# 115151
# 131015
# 147536
# 160592
# 177859
# 191764
# 205161
# 222711
# 238383
# 263654
# 280047
# 294097
# 310177
# 325050
# 338595
#
# Disc length: 4746 seconds
#
#
# Revision: 0
# Processed by: cddbd v1.5.1PL2 Copyright (c) Steve Scherf et al.
# Submitted via: FreeRIP 2.941 
#
DISCID=3f128816
DTITLE=Gino e Geno - Sertanejas Dançantes
DYEAR=2006
DGENRE=Country
TTITLE0=A galera do chapéu
TTITLE1=A mulher e a bebida
TTITLE2=Acidente de amor
TTITLE3=Agita aí
TTITLE4=Apaixonado por você
TTITLE5=Bebo pra carai
TTITLE6=Cabelo de Samambaia
TTITLE7=Cara boa
TTITLE8=Ela chorou de amor
TTITLE9=Foi uma noite só
TTITLE10=Mulher que não dá voa
TTITLE11=Nóis enverga mais não quebra
TTITLE12=O bem intencionado
TTITLE13=O gavião
TTITLE14=O que é que eu tô fazendo aqui
TTITLE15=Paixão mineira
TTITLE16=Pinga na garganta
TTITLE17=Que bicho que é
TTITLE18=Saudade cigana
TTITLE19=Tô ficando com ela
TTITLE20=Uma notícia pra te dar
TTITLE21=Vou beber veneno
EXTD=A minha amada namorada, AMANDA.\nCom todo carinho do meu coração.\nTe amo mto meu amor!!!
EXTT0=Te amo Amanda!!!
EXTT1=
EXTT2=
EXTT3=
EXTT4=
EXTT5=
EXTT6=
EXTT7=
EXTT8=
EXTT9=
EXTT10=
EXTT11=
EXTT12=
EXTT13=
EXTT14=
EXTT15=
EXTT16=
EXTT17=
EXTT18=
EXTT19=
EXTT20=
EXTT21=
PLAYORDER=
